<svg id="codepen" xmlns="http://www.w3.org/2000/svg" viewBox="0 0 51 51"><defs><style>.cls-1,.cls-2{fill:none;stroke:#3a8ae7}.cls-2{stroke-miterlimit:10}</style></defs><title>codepen</title><circle class="cls-1" cx="25.5" cy="25.5" r="25"/><path class="cls-2" d="M294.16 90.29a1.09 1.09 0 0 1-.47.89l-11.42 7.61a1.08 1.08 0 0 1-1.2 0l-11.42-7.61a1.09 1.09 0 0 1-.47-.89v-7.62a1.09 1.09 0 0 1 .47-.89l11.42-7.61a1.08 1.08 0 0 1 1.2 0l11.42 7.61a1.09 1.09 0 0 1 .47.89v7.62zM274 86.48l-2.69-1.8v3.6zm6.58-4.41v-5l-8.41 5.61 3.75 2.51zm0 13.82v-5l-4.66-3.11-3.75 2.51zm4.87-9.41l-3.79-2.54-3.79 2.54 3.79 2.52zm5.69-3.81l-8.41-5.61v5l4.66 3.11zm0 7.62l-3.75-2.51-4.66 3.11v5zm.86-2v-3.6l-2.69 1.8z" transform="translate(-256.16 -60.7)"/></svg>
