<svg id="LinkedIn" xmlns="http://www.w3.org/2000/svg" viewBox="0 0 51 51"><defs><style>.cls-1{fill:none;stroke:#3a8ae7;stroke-miterlimit:10}</style></defs><title>linkedin</title><circle class="cls-1" cx="25.5" cy="25.5" r="25"/><path class="cls-1" d="M491.05 48.65a2.75 2.75 0 0 1-2.94-2.77 2.78 2.78 0 0 1 3-2.77 2.77 2.77 0 1 1-.06 5.54zm2.67 18.21h-5.34v-16h5.34v16zm19.19 0h-5.31v-8.57c0-2.15-.78-3.62-2.7-3.62a2.92 2.92 0 0 0-2.73 1.94 4 4 0 0 0-.18 1.31v8.94h-5.32c.06-14.52 0-16 0-16H502v2.33a5.28 5.28 0 0 1 4.84-2.7c3.51 0 6.13 2.3 6.13 7.21v9.18z" transform="translate(-475 -29.49)"/></svg>
