<svg id="github" xmlns="http://www.w3.org/2000/svg" viewBox="0 0 36.04 35.18"><defs><style>.cls-1{fill:none;stroke:#3a8ae7}</style></defs><title>github</title><path class="cls-1" d="M288.31 144.23a.87.87 0 0 1-1.19-.84v-4.81a4.13 4.13 0 0 0-1.19-3.24c3.9-.43 8-1.92 8-8.65a6.74 6.74 0 0 0-1.8-4.7 6.33 6.33 0 0 0-.18-4.65c-1.46-.46-4.81 1.8-4.81 1.8a16.5 16.5 0 0 0-8.76 0s-3.35-2.26-4.84-1.8a6.4 6.4 0 0 0-.16 4.65 6.74 6.74 0 0 0-1.8 4.7c0 6.71 4.08 8.21 8 8.65a3.8 3.8 0 0 0-1.12 2.35 3.7 3.7 0 0 1-5.09-1.46 3.67 3.67 0 0 0-2.69-1.8c-1.71 0-.11 1.07-.11 1.07 1.14.52 1.94 2.55 1.94 2.55 1 3.13 5.91 2.08 5.91 2.08v3.26a.89.89 0 0 1-1.21.84 17.52 17.52 0 1 1 11.1 0z" transform="translate(-264.75 -109.58)"/></svg>
